<svg xmlns="http://www.w3.org/2000/svg" xmlns:xlink="http://www.w3.org/1999/xlink" width="1080" zoomAndPan="magnify" viewBox="0 0 810 809.999993" height="1080" preserveAspectRatio="xMidYMid meet" version="1.0"><defs><g/><clipPath id="b97f19f21d"><path d="M 405 0 C 181.324219 0 0 181.324219 0 405 C 0 628.675781 181.324219 810 405 810 C 628.675781 810 810 628.675781 810 405 C 810 181.324219 628.675781 0 405 0 Z M 405 0 " clip-rule="nonzero"/></clipPath></defs><g clip-path="url(#b97f19f21d)"><rect x="-81" width="972" fill="#4b3b30" y="-80.999999" height="971.999992" fill-opacity="1"/></g><g fill="#ffffff" fill-opacity="1"><g transform="translate(252.376486, 422.999999)"><g><path d="M 11.09375 -28.125 L 10.8125 -28.125 C 10.59375 -25.738281 10.210938 -21.273438 9.671875 -14.734375 C 9.140625 -8.191406 8.875 -4.632812 8.875 -4.0625 C 8.875 -2.9375 9.429688 -2.375 10.546875 -2.375 L 12.765625 -2.4375 L 12.875 -2.21875 L 12.390625 0.21875 C 11.984375 0.175781 11.265625 0.128906 10.234375 0.078125 C 9.210938 0.0234375 8.179688 0 7.140625 0 C 6.234375 0 5.300781 0.0625 4.34375 0.1875 C 3.394531 0.3125 2.773438 0.394531 2.484375 0.4375 L 2.765625 -2.0625 C 3.910156 -2.195312 4.734375 -2.5625 5.234375 -3.15625 C 5.742188 -3.757812 6.070312 -4.78125 6.21875 -6.21875 C 6.582031 -9.601562 7.0625 -14.171875 7.65625 -19.921875 C 8.25 -25.671875 8.546875 -28.890625 8.546875 -29.578125 C 8.546875 -30.515625 8.175781 -31.21875 7.4375 -31.6875 C 6.695312 -32.15625 5.515625 -32.445312 3.890625 -32.5625 L 3.734375 -32.828125 L 4.15625 -34.71875 C 4.625 -34.6875 5.546875 -34.632812 6.921875 -34.5625 C 8.296875 -34.488281 9.34375 -34.453125 10.0625 -34.453125 C 10.707031 -34.453125 11.414062 -34.476562 12.1875 -34.53125 C 12.96875 -34.582031 13.484375 -34.628906 13.734375 -34.671875 C 15.179688 -30.015625 16.578125 -25.691406 17.921875 -21.703125 C 19.273438 -17.722656 20.382812 -14.5625 21.25 -12.21875 C 22.113281 -9.875 22.65625 -8.414062 22.875 -7.84375 L 23.140625 -7.84375 C 23.648438 -9.175781 24.804688 -12.347656 26.609375 -17.359375 C 28.410156 -22.367188 30.375 -28.101562 32.5 -34.5625 C 32.5 -34.59375 32.988281 -34.570312 33.96875 -34.5 L 36.0625 -34.453125 C 36.75 -34.453125 37.773438 -34.492188 39.140625 -34.578125 C 40.515625 -34.671875 41.4375 -34.734375 41.90625 -34.765625 L 42.015625 -34.5625 L 41.75 -32.5625 C 40.195312 -32.375 39.09375 -32.054688 38.4375 -31.609375 C 37.789062 -31.160156 37.46875 -30.484375 37.46875 -29.578125 C 37.46875 -28.785156 37.628906 -25.835938 37.953125 -20.734375 C 38.285156 -15.640625 38.59375 -11.234375 38.875 -7.515625 C 39.0625 -6.035156 39.242188 -4.941406 39.421875 -4.234375 C 39.597656 -3.535156 39.847656 -3.050781 40.171875 -2.78125 C 40.503906 -2.507812 40.957031 -2.375 41.53125 -2.375 C 41.851562 -2.375 42.160156 -2.390625 42.453125 -2.421875 C 42.742188 -2.460938 42.941406 -2.484375 43.046875 -2.484375 L 43.15625 -2.265625 L 42.671875 0.15625 C 42.304688 0.125 41.628906 0.0859375 40.640625 0.046875 C 39.648438 0.015625 38.613281 0 37.53125 0 C 36.550781 0 35.457031 0.0625 34.25 0.1875 C 33.050781 0.3125 32.269531 0.394531 31.90625 0.4375 L 32.125 -2.0625 C 33.238281 -2.195312 34.046875 -2.476562 34.546875 -2.90625 C 35.054688 -3.34375 35.3125 -3.960938 35.3125 -4.765625 C 35.3125 -5.515625 35.050781 -9.023438 34.53125 -15.296875 C 34.007812 -21.578125 33.65625 -25.851562 33.46875 -28.125 L 33.203125 -28.125 L 22.765625 0.65625 L 21.46875 1.03125 Z M 11.09375 -28.125 "/></g></g></g><g fill="#ffffff" fill-opacity="1"><g transform="translate(312.126298, 422.999999)"><g><path d="M 8.109375 -1.84375 C 9.410156 -2.09375 10.347656 -2.414062 10.921875 -2.8125 C 11.492188 -3.207031 11.867188 -3.75 12.046875 -4.4375 C 12.234375 -5.125 12.328125 -6.203125 12.328125 -7.671875 L 12.328125 -10.0625 C 12.328125 -11.175781 12.21875 -12.15625 12 -13 C 11.789062 -13.851562 11.378906 -14.910156 10.765625 -16.171875 L 5.890625 -26.0625 C 4.953125 -27.976562 4.285156 -29.269531 3.890625 -29.9375 C 3.492188 -30.601562 2.9375 -31.132812 2.21875 -31.53125 C 1.5 -31.925781 0.453125 -32.175781 -0.921875 -32.28125 L -1.03125 -32.5 L -0.703125 -34.609375 C -0.304688 -34.578125 0.445312 -34.539062 1.5625 -34.5 C 2.6875 -34.46875 3.914062 -34.453125 5.25 -34.453125 C 6.507812 -34.453125 7.976562 -34.515625 9.65625 -34.640625 C 11.332031 -34.765625 12.421875 -34.84375 12.921875 -34.875 L 13.09375 -34.5 L 12.921875 -32.609375 C 11.296875 -32.460938 10.203125 -32.253906 9.640625 -31.984375 C 9.085938 -31.710938 8.8125 -31.269531 8.8125 -30.65625 C 8.8125 -30.1875 9.257812 -28.90625 10.15625 -26.8125 C 11.0625 -24.726562 11.992188 -22.675781 12.953125 -20.65625 C 13.910156 -18.632812 14.550781 -17.316406 14.875 -16.703125 L 15.140625 -16.703125 L 21.3125 -28.171875 C 21.882812 -29.222656 22.171875 -30.125 22.171875 -30.875 C 22.171875 -31.8125 21.035156 -32.351562 18.765625 -32.5 L 18.65625 -32.71875 L 18.984375 -34.828125 C 19.410156 -34.785156 20.304688 -34.710938 21.671875 -34.609375 C 23.046875 -34.503906 24.148438 -34.453125 24.984375 -34.453125 C 25.847656 -34.453125 26.8125 -34.476562 27.875 -34.53125 C 28.9375 -34.582031 29.628906 -34.628906 29.953125 -34.671875 L 30.171875 -34.28125 L 29.84375 -32.28125 C 28.695312 -32.0625 27.796875 -31.765625 27.140625 -31.390625 C 26.492188 -31.015625 25.925781 -30.472656 25.4375 -29.765625 C 24.957031 -29.066406 24.25 -27.890625 23.3125 -26.234375 C 23.09375 -25.796875 22.910156 -25.46875 22.765625 -25.25 L 17.359375 -15.734375 C 16.890625 -14.910156 16.59375 -13.972656 16.46875 -12.921875 C 16.34375 -11.878906 16.242188 -9.988281 16.171875 -7.25 L 16.171875 -6.0625 C 16.128906 -4.65625 16.28125 -3.6875 16.625 -3.15625 C 16.96875 -2.632812 17.609375 -2.375 18.546875 -2.375 C 19.117188 -2.375 19.65625 -2.390625 20.15625 -2.421875 C 20.664062 -2.460938 21.015625 -2.503906 21.203125 -2.546875 L 21.3125 -2.328125 L 20.8125 0.15625 C 20.3125 0.125 19.382812 0.0859375 18.03125 0.046875 C 16.675781 0.015625 15.316406 0 13.953125 0 C 12.835938 0 11.628906 0.0859375 10.328125 0.265625 C 9.023438 0.453125 8.175781 0.582031 7.78125 0.65625 Z M 8.109375 -1.84375 "/></g></g></g><g fill="#ffffff" fill-opacity="1"><g transform="translate(355.168389, 422.999999)"><g><path d="M 11.84375 0.65625 C 10.332031 0.65625 8.941406 0.519531 7.671875 0.25 C 6.410156 -0.0195312 5.375 -0.316406 4.5625 -0.640625 C 3.757812 -0.972656 3.359375 -1.15625 3.359375 -1.1875 L 3.078125 -1.734375 C 3.117188 -1.953125 3.191406 -2.492188 3.296875 -3.359375 C 3.410156 -4.222656 3.507812 -5.347656 3.59375 -6.734375 C 3.6875 -8.117188 3.734375 -9.585938 3.734375 -11.140625 L 6.171875 -11.40625 C 6.171875 -8.707031 6.347656 -6.707031 6.703125 -5.40625 C 7.066406 -4.113281 7.734375 -3.222656 8.703125 -2.734375 C 9.679688 -2.242188 11.175781 -2 13.1875 -2 C 15.46875 -2 17.289062 -2.53125 18.65625 -3.59375 C 20.03125 -4.65625 20.71875 -6.109375 20.71875 -7.953125 C 20.71875 -9.035156 20.347656 -10.007812 19.609375 -10.875 C 18.867188 -11.738281 17.992188 -12.472656 16.984375 -13.078125 C 15.972656 -13.691406 14.472656 -14.523438 12.484375 -15.578125 C 10.617188 -16.546875 9.085938 -17.4375 7.890625 -18.25 C 6.703125 -19.0625 5.703125 -20.023438 4.890625 -21.140625 C 4.078125 -22.265625 3.671875 -23.5625 3.671875 -25.03125 C 3.671875 -26.90625 4.21875 -28.609375 5.3125 -30.140625 C 6.414062 -31.679688 7.914062 -32.890625 9.8125 -33.765625 C 11.707031 -34.648438 13.804688 -35.09375 16.109375 -35.09375 C 17.554688 -35.09375 18.890625 -34.992188 20.109375 -34.796875 C 21.335938 -34.597656 22.3125 -34.390625 23.03125 -34.171875 C 23.757812 -33.960938 24.210938 -33.820312 24.390625 -33.75 L 24.546875 -33.421875 C 24.515625 -33.203125 24.425781 -32.695312 24.28125 -31.90625 C 24.132812 -31.113281 23.972656 -30.015625 23.796875 -28.609375 C 23.617188 -27.203125 23.472656 -25.757812 23.359375 -24.28125 L 21.25 -24.0625 L 20.921875 -24.328125 C 20.960938 -24.472656 21 -24.804688 21.03125 -25.328125 C 21.070312 -25.859375 21.09375 -26.460938 21.09375 -27.140625 C 21.09375 -29.054688 20.625 -30.375 19.6875 -31.09375 C 18.75 -31.8125 17.070312 -32.171875 14.65625 -32.171875 C 12.675781 -32.171875 11.046875 -31.675781 9.765625 -30.6875 C 8.484375 -29.695312 7.84375 -28.460938 7.84375 -26.984375 C 7.84375 -25.546875 8.460938 -24.289062 9.703125 -23.21875 C 10.953125 -22.15625 12.785156 -20.992188 15.203125 -19.734375 C 17.546875 -18.546875 19.328125 -17.5625 20.546875 -16.78125 C 21.773438 -16.007812 22.859375 -15.046875 23.796875 -13.890625 C 24.734375 -12.742188 25.203125 -11.410156 25.203125 -9.890625 C 25.203125 -7.878906 24.632812 -6.070312 23.5 -4.46875 C 22.363281 -2.863281 20.785156 -1.609375 18.765625 -0.703125 C 16.742188 0.203125 14.4375 0.65625 11.84375 0.65625 Z M 11.84375 0.65625 "/></g></g></g><g fill="#ffffff" fill-opacity="1"><g transform="translate(397.777922, 422.999999)"><g><path d="M 7.1875 -2.109375 C 8.988281 -2.253906 10.234375 -2.476562 10.921875 -2.78125 C 11.609375 -3.09375 12.054688 -3.648438 12.265625 -4.453125 C 12.484375 -5.265625 12.59375 -6.703125 12.59375 -8.765625 L 12.59375 -32.34375 C 9.53125 -32.226562 7.445312 -32.050781 6.34375 -31.8125 C 5.25 -31.582031 4.503906 -31.0625 4.109375 -30.25 C 3.710938 -29.445312 3.351562 -27.875 3.03125 -25.53125 L 0.484375 -25.3125 C 0.921875 -28.738281 1.191406 -31.859375 1.296875 -34.671875 L 1.78125 -35.09375 L 6.265625 -34.5 L 23.03125 -34.5 L 27.640625 -35.09375 L 28.125 -34.671875 C 28.226562 -31.710938 28.5 -28.664062 28.9375 -25.53125 L 26.390625 -25.3125 C 25.992188 -27.6875 25.597656 -29.285156 25.203125 -30.109375 C 24.804688 -30.941406 24.101562 -31.484375 23.09375 -31.734375 C 22.082031 -31.992188 20.132812 -32.195312 17.25 -32.34375 C 17.03125 -30.175781 16.832031 -26.351562 16.65625 -20.875 C 16.476562 -15.394531 16.390625 -10.457031 16.390625 -6.0625 C 16.390625 -4.726562 16.625 -3.78125 17.09375 -3.21875 C 17.5625 -2.65625 18.351562 -2.375 19.46875 -2.375 C 20.550781 -2.375 21.539062 -2.429688 22.4375 -2.546875 L 22.609375 -2.328125 L 22.125 0.15625 L 20.328125 0.109375 L 14.171875 0 C 12.179688 0 9.710938 0.0703125 6.765625 0.21875 Z M 7.1875 -2.109375 "/></g></g></g><g fill="#ffffff" fill-opacity="1"><g transform="translate(441.252583, 422.999999)"><g><path d="M 8.109375 -1.84375 C 9.410156 -2.09375 10.347656 -2.414062 10.921875 -2.8125 C 11.492188 -3.207031 11.867188 -3.75 12.046875 -4.4375 C 12.234375 -5.125 12.328125 -6.203125 12.328125 -7.671875 L 12.328125 -10.0625 C 12.328125 -11.175781 12.21875 -12.15625 12 -13 C 11.789062 -13.851562 11.378906 -14.910156 10.765625 -16.171875 L 5.890625 -26.0625 C 4.953125 -27.976562 4.285156 -29.269531 3.890625 -29.9375 C 3.492188 -30.601562 2.9375 -31.132812 2.21875 -31.53125 C 1.5 -31.925781 0.453125 -32.175781 -0.921875 -32.28125 L -1.03125 -32.5 L -0.703125 -34.609375 C -0.304688 -34.578125 0.445312 -34.539062 1.5625 -34.5 C 2.6875 -34.46875 3.914062 -34.453125 5.25 -34.453125 C 6.507812 -34.453125 7.976562 -34.515625 9.65625 -34.640625 C 11.332031 -34.765625 12.421875 -34.84375 12.921875 -34.875 L 13.09375 -34.5 L 12.921875 -32.609375 C 11.296875 -32.460938 10.203125 -32.253906 9.640625 -31.984375 C 9.085938 -31.710938 8.8125 -31.269531 8.8125 -30.65625 C 8.8125 -30.1875 9.257812 -28.90625 10.15625 -26.8125 C 11.0625 -24.726562 11.992188 -22.675781 12.953125 -20.65625 C 13.910156 -18.632812 14.550781 -17.316406 14.875 -16.703125 L 15.140625 -16.703125 L 21.3125 -28.171875 C 21.882812 -29.222656 22.171875 -30.125 22.171875 -30.875 C 22.171875 -31.8125 21.035156 -32.351562 18.765625 -32.5 L 18.65625 -32.71875 L 18.984375 -34.828125 C 19.410156 -34.785156 20.304688 -34.710938 21.671875 -34.609375 C 23.046875 -34.503906 24.148438 -34.453125 24.984375 -34.453125 C 25.847656 -34.453125 26.8125 -34.476562 27.875 -34.53125 C 28.9375 -34.582031 29.628906 -34.628906 29.953125 -34.671875 L 30.171875 -34.28125 L 29.84375 -32.28125 C 28.695312 -32.0625 27.796875 -31.765625 27.140625 -31.390625 C 26.492188 -31.015625 25.925781 -30.472656 25.4375 -29.765625 C 24.957031 -29.066406 24.25 -27.890625 23.3125 -26.234375 C 23.09375 -25.796875 22.910156 -25.46875 22.765625 -25.25 L 17.359375 -15.734375 C 16.890625 -14.910156 16.59375 -13.972656 16.46875 -12.921875 C 16.34375 -11.878906 16.242188 -9.988281 16.171875 -7.25 L 16.171875 -6.0625 C 16.128906 -4.65625 16.28125 -3.6875 16.625 -3.15625 C 16.96875 -2.632812 17.609375 -2.375 18.546875 -2.375 C 19.117188 -2.375 19.65625 -2.390625 20.15625 -2.421875 C 20.664062 -2.460938 21.015625 -2.503906 21.203125 -2.546875 L 21.3125 -2.328125 L 20.8125 0.15625 C 20.3125 0.125 19.382812 0.0859375 18.03125 0.046875 C 16.675781 0.015625 15.316406 0 13.953125 0 C 12.835938 0 11.628906 0.0859375 10.328125 0.265625 C 9.023438 0.453125 8.175781 0.582031 7.78125 0.65625 Z M 8.109375 -1.84375 "/></g></g></g><g fill="#ffffff" fill-opacity="1"><g transform="translate(484.29468, 422.999999)"><g><path d="M 4 -1.953125 C 5.40625 -2.160156 6.367188 -2.578125 6.890625 -3.203125 C 7.410156 -3.835938 7.671875 -4.929688 7.671875 -6.484375 L 7.734375 -29.203125 C 7.734375 -30.359375 7.597656 -31.132812 7.328125 -31.53125 C 7.054688 -31.925781 6.523438 -32.125 5.734375 -32.125 C 5.367188 -32.125 5.003906 -32.101562 4.640625 -32.0625 C 4.285156 -32.03125 4.035156 -32.015625 3.890625 -32.015625 L 3.78125 -32.234375 L 4.15625 -34.609375 C 4.59375 -34.578125 5.40625 -34.539062 6.59375 -34.5 C 7.78125 -34.46875 8.988281 -34.453125 10.21875 -34.453125 C 11.195312 -34.453125 12.304688 -34.515625 13.546875 -34.640625 C 14.785156 -34.765625 15.601562 -34.863281 16 -34.9375 L 15.796875 -32.5 C 14.597656 -32.351562 13.773438 -32.117188 13.328125 -31.796875 C 12.878906 -31.472656 12.609375 -31.09375 12.515625 -30.65625 C 12.429688 -30.226562 12.332031 -29.164062 12.21875 -27.46875 C 12 -24.40625 11.835938 -20.910156 11.734375 -16.984375 C 11.628906 -13.054688 11.578125 -9.59375 11.578125 -6.59375 C 11.578125 -5.300781 11.679688 -4.375 11.890625 -3.8125 C 12.109375 -3.25 12.515625 -2.878906 13.109375 -2.703125 C 13.703125 -2.523438 14.722656 -2.4375 16.171875 -2.4375 C 18.367188 -2.4375 19.976562 -2.613281 21 -2.96875 C 22.03125 -3.332031 22.804688 -4.035156 23.328125 -5.078125 C 23.859375 -6.128906 24.335938 -7.804688 24.765625 -10.109375 L 27.140625 -10.390625 L 27.3125 -10.109375 C 27.195312 -9.535156 26.96875 -8.238281 26.625 -6.21875 C 26.289062 -4.195312 25.992188 -2.070312 25.734375 0.15625 L 25.46875 0.484375 C 24.425781 0.410156 22.269531 0.3125 19 0.1875 C 15.738281 0.0625 13.046875 0 10.921875 0 C 9.222656 0 7.679688 0.0703125 6.296875 0.21875 C 4.910156 0.363281 4.035156 0.472656 3.671875 0.546875 Z M 4 -1.953125 "/></g></g></g><g fill="#ffffff" fill-opacity="1"><g transform="translate(525.660583, 422.999999)"><g><path d="M 28.765625 -9.03125 C 28.148438 -6.113281 27.664062 -3.085938 27.3125 0.046875 L 27.03125 0.375 C 19.46875 0.125 14.007812 0 10.65625 0 C 7.988281 0 5.484375 0.179688 3.140625 0.546875 L 3.46875 -1.953125 C 5.082031 -2.160156 6.1875 -2.578125 6.78125 -3.203125 C 7.375 -3.835938 7.671875 -4.929688 7.671875 -6.484375 L 7.734375 -29.203125 C 7.734375 -30.359375 7.597656 -31.132812 7.328125 -31.53125 C 7.054688 -31.925781 6.523438 -32.125 5.734375 -32.125 L 3.890625 -32.015625 L 3.78125 -32.234375 L 4.15625 -34.609375 C 7.84375 -34.503906 10.351562 -34.453125 11.6875 -34.453125 C 15.96875 -34.453125 19.296875 -34.492188 21.671875 -34.578125 C 24.054688 -34.671875 26.132812 -34.84375 27.90625 -35.09375 L 28.0625 -34.765625 C 27.414062 -31.921875 27.003906 -28.929688 26.828125 -25.796875 L 24.234375 -25.578125 L 24.328125 -27.90625 C 24.328125 -29.164062 24.164062 -30.035156 23.84375 -30.515625 C 23.519531 -31.003906 22.816406 -31.332031 21.734375 -31.5 C 20.648438 -31.664062 18.757812 -31.75 16.0625 -31.75 C 14.800781 -31.75 13.9375 -31.710938 13.46875 -31.640625 C 13 -31.566406 12.691406 -31.394531 12.546875 -31.125 C 12.398438 -30.851562 12.3125 -30.359375 12.28125 -29.640625 L 11.84375 -19.140625 L 17.40625 -19.09375 C 18.8125 -19.09375 21.015625 -19.289062 24.015625 -19.6875 L 24.234375 -19.40625 L 23.46875 -16.21875 C 19.46875 -16.332031 16.945312 -16.390625 15.90625 -16.390625 C 14.707031 -16.390625 13.316406 -16.257812 11.734375 -16 L 11.515625 -5.671875 C 11.515625 -4.628906 11.601562 -3.898438 11.78125 -3.484375 C 11.96875 -3.066406 12.335938 -2.785156 12.890625 -2.640625 C 13.453125 -2.503906 14.421875 -2.4375 15.796875 -2.4375 C 18.816406 -2.4375 20.96875 -2.578125 22.25 -2.859375 C 23.53125 -3.148438 24.441406 -3.726562 24.984375 -4.59375 C 25.523438 -5.457031 25.941406 -6.9375 26.234375 -9.03125 L 28.609375 -9.296875 Z M 28.765625 -9.03125 "/></g></g></g></svg>